<mxfile host="app.diagrams.net" modified="2022-07-23T12:58:10.236Z" agent="5.0 (Macintosh; Intel Mac OS X 10_15_7) AppleWebKit/605.1.15 (KHTML, like Gecko) Version/14.1.2 Safari/605.1.15" etag="csMgu7yENZcDB6sq1wtY" version="20.2.0" type="github">
  <diagram id="C5RBs43oDa-KdzZeNtuy" name="Page-1">
    <mxGraphModel dx="946" dy="645" grid="1" gridSize="10" guides="1" tooltips="1" connect="1" arrows="1" fold="1" page="1" pageScale="1" pageWidth="827" pageHeight="1169" math="0" shadow="0">
      <root>
        <mxCell id="WIyWlLk6GJQsqaUBKTNV-0" />
        <mxCell id="WIyWlLk6GJQsqaUBKTNV-1" parent="WIyWlLk6GJQsqaUBKTNV-0" />
        <mxCell id="LrU7Bq-PTawjnWdcVEmr-0" value="Apply health reduction to enemies based on damage amount" style="rounded=1;whiteSpace=wrap;html=1;" vertex="1" parent="WIyWlLk6GJQsqaUBKTNV-1">
          <mxGeometry x="390" y="550" width="120" height="60" as="geometry" />
        </mxCell>
        <mxCell id="LrU7Bq-PTawjnWdcVEmr-7" value="" style="edgeStyle=orthogonalEdgeStyle;rounded=0;orthogonalLoop=1;jettySize=auto;html=1;" edge="1" parent="WIyWlLk6GJQsqaUBKTNV-1" source="LrU7Bq-PTawjnWdcVEmr-1" target="LrU7Bq-PTawjnWdcVEmr-6">
          <mxGeometry relative="1" as="geometry" />
        </mxCell>
        <mxCell id="LrU7Bq-PTawjnWdcVEmr-24" value="" style="edgeStyle=orthogonalEdgeStyle;rounded=0;orthogonalLoop=1;jettySize=auto;html=1;" edge="1" parent="WIyWlLk6GJQsqaUBKTNV-1" source="LrU7Bq-PTawjnWdcVEmr-1">
          <mxGeometry relative="1" as="geometry">
            <mxPoint x="280" y="140" as="targetPoint" />
          </mxGeometry>
        </mxCell>
        <mxCell id="LrU7Bq-PTawjnWdcVEmr-1" value="PlayerStats Loaded" style="rounded=1;whiteSpace=wrap;html=1;" vertex="1" parent="WIyWlLk6GJQsqaUBKTNV-1">
          <mxGeometry x="80" y="120" width="120" height="40" as="geometry" />
        </mxCell>
        <mxCell id="LrU7Bq-PTawjnWdcVEmr-16" style="edgeStyle=orthogonalEdgeStyle;rounded=0;orthogonalLoop=1;jettySize=auto;html=1;entryX=0;entryY=0.5;entryDx=0;entryDy=0;" edge="1" parent="WIyWlLk6GJQsqaUBKTNV-1" source="LrU7Bq-PTawjnWdcVEmr-2" target="LrU7Bq-PTawjnWdcVEmr-9">
          <mxGeometry relative="1" as="geometry" />
        </mxCell>
        <mxCell id="LrU7Bq-PTawjnWdcVEmr-2" value="BASE DAMAGE assigned" style="whiteSpace=wrap;html=1;rounded=1;" vertex="1" parent="WIyWlLk6GJQsqaUBKTNV-1">
          <mxGeometry x="80" y="320" width="120" height="40" as="geometry" />
        </mxCell>
        <mxCell id="LrU7Bq-PTawjnWdcVEmr-11" style="edgeStyle=orthogonalEdgeStyle;rounded=0;orthogonalLoop=1;jettySize=auto;html=1;entryX=0.5;entryY=0;entryDx=0;entryDy=0;" edge="1" parent="WIyWlLk6GJQsqaUBKTNV-1" source="LrU7Bq-PTawjnWdcVEmr-6" target="LrU7Bq-PTawjnWdcVEmr-2">
          <mxGeometry relative="1" as="geometry" />
        </mxCell>
        <mxCell id="LrU7Bq-PTawjnWdcVEmr-6" value="STENGTH assigned" style="whiteSpace=wrap;html=1;rounded=1;" vertex="1" parent="WIyWlLk6GJQsqaUBKTNV-1">
          <mxGeometry x="80" y="240" width="120" height="40" as="geometry" />
        </mxCell>
        <mxCell id="LrU7Bq-PTawjnWdcVEmr-22" style="edgeStyle=orthogonalEdgeStyle;rounded=0;orthogonalLoop=1;jettySize=auto;html=1;entryX=0.5;entryY=0;entryDx=0;entryDy=0;" edge="1" parent="WIyWlLk6GJQsqaUBKTNV-1" source="LrU7Bq-PTawjnWdcVEmr-9" target="LrU7Bq-PTawjnWdcVEmr-20">
          <mxGeometry relative="1" as="geometry" />
        </mxCell>
        <mxCell id="LrU7Bq-PTawjnWdcVEmr-9" value="Add" style="rhombus;whiteSpace=wrap;html=1;" vertex="1" parent="WIyWlLk6GJQsqaUBKTNV-1">
          <mxGeometry x="180" y="400" width="80" height="80" as="geometry" />
        </mxCell>
        <mxCell id="LrU7Bq-PTawjnWdcVEmr-15" value="" style="edgeStyle=orthogonalEdgeStyle;rounded=0;orthogonalLoop=1;jettySize=auto;html=1;" edge="1" parent="WIyWlLk6GJQsqaUBKTNV-1" source="LrU7Bq-PTawjnWdcVEmr-12" target="LrU7Bq-PTawjnWdcVEmr-14">
          <mxGeometry relative="1" as="geometry" />
        </mxCell>
        <mxCell id="LrU7Bq-PTawjnWdcVEmr-12" value="Find selected weapon stats" style="rounded=1;whiteSpace=wrap;html=1;" vertex="1" parent="WIyWlLk6GJQsqaUBKTNV-1">
          <mxGeometry x="240" y="240" width="120" height="40" as="geometry" />
        </mxCell>
        <mxCell id="LrU7Bq-PTawjnWdcVEmr-17" style="edgeStyle=orthogonalEdgeStyle;rounded=0;orthogonalLoop=1;jettySize=auto;html=1;entryX=1;entryY=0.5;entryDx=0;entryDy=0;" edge="1" parent="WIyWlLk6GJQsqaUBKTNV-1" source="LrU7Bq-PTawjnWdcVEmr-14" target="LrU7Bq-PTawjnWdcVEmr-9">
          <mxGeometry relative="1" as="geometry" />
        </mxCell>
        <mxCell id="LrU7Bq-PTawjnWdcVEmr-14" value="Find selected weapon damage" style="whiteSpace=wrap;html=1;rounded=1;" vertex="1" parent="WIyWlLk6GJQsqaUBKTNV-1">
          <mxGeometry x="240" y="320" width="120" height="40" as="geometry" />
        </mxCell>
        <mxCell id="LrU7Bq-PTawjnWdcVEmr-35" style="edgeStyle=orthogonalEdgeStyle;rounded=0;orthogonalLoop=1;jettySize=auto;html=1;" edge="1" parent="WIyWlLk6GJQsqaUBKTNV-1" source="LrU7Bq-PTawjnWdcVEmr-20" target="LrU7Bq-PTawjnWdcVEmr-0">
          <mxGeometry relative="1" as="geometry" />
        </mxCell>
        <mxCell id="LrU7Bq-PTawjnWdcVEmr-20" value="Final Player Damage" style="rounded=1;whiteSpace=wrap;html=1;" vertex="1" parent="WIyWlLk6GJQsqaUBKTNV-1">
          <mxGeometry x="160" y="560" width="120" height="40" as="geometry" />
        </mxCell>
        <mxCell id="LrU7Bq-PTawjnWdcVEmr-27" style="edgeStyle=orthogonalEdgeStyle;rounded=0;orthogonalLoop=1;jettySize=auto;html=1;entryX=0.5;entryY=0;entryDx=0;entryDy=0;" edge="1" parent="WIyWlLk6GJQsqaUBKTNV-1" source="LrU7Bq-PTawjnWdcVEmr-26" target="LrU7Bq-PTawjnWdcVEmr-12">
          <mxGeometry relative="1" as="geometry" />
        </mxCell>
        <mxCell id="LrU7Bq-PTawjnWdcVEmr-29" style="edgeStyle=orthogonalEdgeStyle;rounded=0;orthogonalLoop=1;jettySize=auto;html=1;" edge="1" parent="WIyWlLk6GJQsqaUBKTNV-1" source="LrU7Bq-PTawjnWdcVEmr-26" target="LrU7Bq-PTawjnWdcVEmr-30">
          <mxGeometry relative="1" as="geometry">
            <mxPoint x="450" y="240" as="targetPoint" />
          </mxGeometry>
        </mxCell>
        <mxCell id="LrU7Bq-PTawjnWdcVEmr-26" value="Check if Weapon is selected" style="rhombus;whiteSpace=wrap;html=1;" vertex="1" parent="WIyWlLk6GJQsqaUBKTNV-1">
          <mxGeometry x="280" y="95" width="90" height="90" as="geometry" />
        </mxCell>
        <mxCell id="LrU7Bq-PTawjnWdcVEmr-28" value="Yes" style="text;html=1;strokeColor=none;fillColor=none;align=center;verticalAlign=middle;whiteSpace=wrap;rounded=0;" vertex="1" parent="WIyWlLk6GJQsqaUBKTNV-1">
          <mxGeometry x="290" y="210" width="60" height="30" as="geometry" />
        </mxCell>
        <mxCell id="LrU7Bq-PTawjnWdcVEmr-31" style="edgeStyle=orthogonalEdgeStyle;rounded=0;orthogonalLoop=1;jettySize=auto;html=1;entryX=1;entryY=0.5;entryDx=0;entryDy=0;" edge="1" parent="WIyWlLk6GJQsqaUBKTNV-1" source="LrU7Bq-PTawjnWdcVEmr-30" target="LrU7Bq-PTawjnWdcVEmr-9">
          <mxGeometry relative="1" as="geometry">
            <Array as="points">
              <mxPoint x="450" y="440" />
            </Array>
          </mxGeometry>
        </mxCell>
        <mxCell id="LrU7Bq-PTawjnWdcVEmr-30" value="Weapon damage = 0" style="rounded=1;whiteSpace=wrap;html=1;" vertex="1" parent="WIyWlLk6GJQsqaUBKTNV-1">
          <mxGeometry x="390" y="240" width="120" height="40" as="geometry" />
        </mxCell>
        <mxCell id="LrU7Bq-PTawjnWdcVEmr-32" value="No" style="text;html=1;strokeColor=none;fillColor=none;align=center;verticalAlign=middle;whiteSpace=wrap;rounded=0;" vertex="1" parent="WIyWlLk6GJQsqaUBKTNV-1">
          <mxGeometry x="440" y="210" width="60" height="30" as="geometry" />
        </mxCell>
        <mxCell id="LrU7Bq-PTawjnWdcVEmr-34" style="edgeStyle=orthogonalEdgeStyle;rounded=0;orthogonalLoop=1;jettySize=auto;html=1;entryX=0.5;entryY=0;entryDx=0;entryDy=0;" edge="1" parent="WIyWlLk6GJQsqaUBKTNV-1" source="LrU7Bq-PTawjnWdcVEmr-33" target="LrU7Bq-PTawjnWdcVEmr-26">
          <mxGeometry relative="1" as="geometry" />
        </mxCell>
        <mxCell id="LrU7Bq-PTawjnWdcVEmr-33" value="Item Selection Changed" style="rounded=1;whiteSpace=wrap;html=1;" vertex="1" parent="WIyWlLk6GJQsqaUBKTNV-1">
          <mxGeometry x="265" y="20" width="120" height="40" as="geometry" />
        </mxCell>
      </root>
    </mxGraphModel>
  </diagram>
</mxfile>
